<?xml version="1.0" standalone="no"?>
<!DOCTYPE svg PUBLIC "-//W3C//DTD SVG 20010904//EN"
 "http://www.w3.org/TR/2001/REC-SVG-20010904/DTD/svg10.dtd">
<svg version="1.0" xmlns="http://www.w3.org/2000/svg"
 width="128.000000pt" height="128.000000pt" viewBox="0 0 128.000000 128.000000"
 preserveAspectRatio="xMidYMid meet">
<metadata>
Created by potrace 1.15, written by Peter Selinger 2001-2017
</metadata>
<g transform="translate(0.000000,128.000000) scale(0.100000,-0.100000)"
fill="#000000" stroke="none">
<path d="M93 1254 c-24 -14 -54 -44 -68 -68 l-25 -43 0 -503 0 -503 25 -43
c15 -26 43 -54 69 -69 l43 -25 503 0 503 0 43 25 c26 15 54 43 69 69 l25 43 0
503 0 503 -25 43 c-15 26 -43 54 -69 69 l-43 25 -504 0 -504 0 -42 -26z m557
-249 c0 -28 -5 -47 -12 -49 -7 -2 -32 -9 -56 -15 -24 -7 -59 -28 -82 -50 -37
-35 -40 -41 -40 -94 l0 -57 -47 0 c-75 0 -118 -17 -157 -60 -33 -37 -36 -45
-36 -104 0 -74 24 -118 80 -147 32 -17 62 -19 338 -19 287 0 305 1 332 20 38
27 60 78 60 139 l0 51 35 0 35 0 0 -67 c0 -89 -36 -164 -99 -208 l-43 -30
-326 0 c-316 0 -328 1 -367 22 -191 103 -194 372 -4 468 27 14 58 25 69 25 13
0 25 10 32 28 24 54 60 101 100 129 53 37 115 62 156 62 31 1 32 0 32 -44z
m216 11 c108 -50 197 -162 224 -281 13 -57 8 -75 -20 -75 -16 0 -20 6 -20 35
0 136 -144 290 -292 311 -39 5 -48 10 -48 27 0 18 4 19 51 14 28 -4 75 -17
105 -31z m-64 -96 c90 -33 163 -125 182 -227 5 -30 3 -33 -18 -33 -20 0 -25 6
-30 44 -12 80 -89 167 -160 181 -58 12 -66 16 -66 36 0 25 24 25 92 -1z"/>
</g>
</svg>
