<?xml version="1.0" standalone="no"?>
<!DOCTYPE svg PUBLIC "-//W3C//DTD SVG 20010904//EN"
 "http://www.w3.org/TR/2001/REC-SVG-20010904/DTD/svg10.dtd">
<svg version="1.0" xmlns="http://www.w3.org/2000/svg"
 width="154.000000pt" height="42.000000pt" viewBox="0 0 154.000000 42.000000"
 preserveAspectRatio="xMidYMid meet">
<metadata>
Created by potrace 1.15, written by Peter Selinger 2001-2017
</metadata>
<g transform="translate(0.000000,42.000000) scale(0.100000,-0.100000)"
fill="#000000" stroke="none">
<path d="M0 210 l0 -210 770 0 770 0 0 210 0 210 -770 0 -770 0 0 -210z m360
106 c0 -8 -12 -21 -27 -28 -15 -7 -30 -24 -33 -38 -4 -17 -14 -26 -30 -28 -34
-5 -50 -20 -50 -48 0 -39 35 -54 128 -54 95 0 122 10 122 45 0 16 6 25 15 25
22 0 19 -52 -5 -78 -19 -20 -30 -22 -136 -22 -109 0 -116 1 -139 25 -34 33
-34 84 1 119 15 14 30 26 34 26 5 0 24 16 43 35 36 36 77 47 77 21z m631 -85
c56 -56 25 -141 -51 -141 -66 0 -103 69 -69 131 23 45 80 49 120 10z m109 -41
c0 -53 2 -60 20 -60 18 0 20 7 20 60 0 57 1 60 25 60 24 0 25 -2 25 -68 0 -40
-5 -73 -12 -80 -7 -7 -33 -12 -60 -12 -58 0 -68 14 -68 99 0 58 1 61 25 61 24
0 25 -3 25 -60z m247 45 c29 -21 38 -66 19 -103 -18 -35 -33 -42 -92 -42 l-44
0 0 80 0 80 48 0 c26 0 57 -7 69 -15z"/>
</g>
</svg>
